{"accessors" : [{"bufferView" : 0, "byteOffset" : 0, "componentType" : 5123, "count" : 3996, "type" : "SCALAR", "max" : [3995], "min" : [0]}, {"bufferView" : 1, "byteOffset" : 0, "componentType" : 5126, "count" : 3996, "type" : "VEC3", "max" : [0.8562222123146057, 2.177548885345459, 1.1446903944015503], "min" : [-0.8562222123146057, -1.6923624277114868, -0.7567869424819946], "name" : "POSITION"}, {"bufferView" : 1, "byteOffset" : 12, "componentType" : 5126, "count" : 3996, "type" : "VEC3", "max" : [1.0000044107437134, 0.9989779591560364, 0.9984826445579529], "min" : [-1.0000044107437134, -0.9999949932098389, -0.9982138276100159], "name" : "NORMAL"}, {"bufferView" : 1, "byteOffset" : 24, "componentType" : 5126, "count" : 3996, "type" : "VEC3", "max" : [1, 1, 1], "min" : [1, 1, 1], "name" : "COLOR_0"}, {"bufferView" : 1, "byteOffset" : 36, "componentType" : 5126, "count" : 3996, "type" : "VEC2", "max" : [0.9885613322257996, -0], "min" : [0, -0.9852824211120605], "name" : "TEXCOORD_0"}], "asset" : {"generator" : "Aspose.3D 22.7", "version" : "2.0"}, "buffers" : [{"uri" : "data:application/octet-stream;base64,", "byteLength" : 183824}], "bufferViews" : [{"buffer" : 0, "byteOffset" : 0, "byteLength" : 7992, "target" : 34963}, {"buffer" : 0, "byteOffset" : 7996, "byteLength" : 175824, "byteStride" : 44, "target" : 34962}], "meshes" : [{"primitives" : [{"attributes" : {"POSITION" : 1, "NORMAL" : 2, "COLOR_0" : 3, "TEXCOORD_0" : 4}, "indices" : 0, "mode" : 4}], "name" : "Shark Player"}], "nodes" : [{"matrix" : [100, 0, 0, 0, 0, -1.6292067955264296E-05, -99.99999999999866, 0, 0, 99.99999999999866, -1.6292067955264296E-05, 0, 0, 0, 0, 1], "mesh" : 0, "name" : "Shark_Player"}], "scene" : 0, "scenes" : [{"nodes" : [0]}]}